<svg width="145" height="25" viewBox="0 0 145 25" fill="none" xmlns="http://www.w3.org/2000/svg">
<g clip-path="url(#clip0_3_133)">
<path d="M17.7728 24.8951H11.1228V15.4119H6.82055V24.8951H0V0.432841H6.80745V9.56191H11.1096V0.432841H17.7597V24.8951H17.7728ZM48.2555 25C55.063 25 60.6244 19.3337 60.6244 12.4344C60.6244 5.43022 55.063 0.0131149 48.2555 0.0131149C41.3562 0.0131149 37.8673 5.02361 37.0278 7.06978C37.0278 4.03987 33.9979 0.419726 30.4827 0.419726H19.1238V24.8951H29.6957C33.9979 24.8951 37.0278 21.2225 37.0278 17.9958C37.9853 19.9895 41.3694 25 48.2555 25V25ZM28.8563 15.0577C29.84 15.0577 30.627 16.0152 30.627 17.1039C30.627 18.245 29.84 19.2025 28.8563 19.2025H25.4722V15.0577H28.8563ZM28.8563 5.87618C29.84 5.87618 30.627 6.83368 30.627 7.92235C30.627 9.01101 29.84 9.96852 28.8563 9.96852H25.4722V5.87618H28.8563ZM33.329 12.4344C34.116 12.3819 35.4014 11.4769 35.8867 10.9391C35.703 11.595 35.703 13.6674 35.8867 14.3232C35.3489 13.5231 34.116 12.5787 33.329 12.4344ZM42.0514 12.4344C42.0514 8.98478 44.8583 6.20409 48.308 6.21721C51.7707 6.24344 54.5252 9.06348 54.4858 12.5262C54.4334 15.9365 51.6789 18.6779 48.2686 18.6779C44.8321 18.6779 42.0514 15.8972 42.0514 12.4344ZM48.2555 17.34C50.905 17.34 53.1348 15.1626 53.1348 12.4344C53.1348 9.70619 50.905 7.55509 48.2555 7.55509C45.5273 7.55509 43.3499 9.70619 43.3499 12.4344C43.3499 15.1626 45.5273 17.34 48.2555 17.34V17.34Z" fill="white"/>
<path d="M96.17 9.08972C96.0388 3.16107 91.8415 0.0262325 86.6999 0.0262325C83.8798 0.0262325 81.3352 0.970618 79.6039 2.80692C77.8725 0.970618 75.3279 0.0262325 72.5079 0.0262325C67.3662 0.0262325 63.1689 3.17419 63.0378 9.10283C63.0378 9.11595 63.0378 9.12907 63.0378 9.14218V22.6653C63.0378 23.9113 64.0477 24.9082 65.2807 24.9082H67.4055C67.6154 24.9082 67.7859 24.7377 67.7859 24.5278V9.12907C67.8778 6.20409 69.9502 4.65635 72.5079 4.65635C75.0656 4.65635 77.138 6.20409 77.2298 9.12907V22.6522C77.2298 23.8982 78.2397 24.8951 79.4727 24.8951H81.5976C81.8075 24.8951 81.978 24.7246 81.978 24.5147V9.11595C82.0698 6.19098 84.1422 4.64323 86.6999 4.64323C89.2576 4.64323 91.33 6.19098 91.4218 9.11595V22.639C91.4218 23.8851 92.4318 24.882 93.6647 24.882H95.7896C95.9995 24.882 96.17 24.7114 96.17 24.5016V9.10283C96.1831 9.11595 96.17 9.10283 96.17 9.08972V9.08972ZM144.006 0.406612H140.399C139.402 0.406612 138.471 0.905036 137.907 1.73137L133.919 7.63379C133.395 8.40766 132.267 8.40766 131.742 7.63379L127.754 1.73137C127.204 0.905036 126.259 0.406612 125.262 0.406612H121.655C121.432 0.406612 121.301 0.655823 121.419 0.839454L128.528 11.3851C129.04 12.1459 129.04 13.1427 128.528 13.9035L121.419 24.4491C121.288 24.6327 121.432 24.882 121.655 24.882H125.262C126.259 24.882 127.19 24.3835 127.754 23.5572L131.742 17.6548C132.267 16.8809 133.395 16.8809 133.919 17.6548L137.907 23.5572C138.457 24.3835 139.402 24.882 140.399 24.882H144.006C144.229 24.882 144.36 24.6327 144.242 24.4491L137.12 13.9166C136.608 13.1558 136.608 12.159 137.12 11.3982L144.229 0.852571C144.36 0.66894 144.229 0.406612 144.006 0.406612V0.406612ZM119.793 0.406612H117.668C116.592 0.406612 115.687 1.16737 115.464 2.17734C113.576 0.734523 111.201 0 108.644 0C102.427 0 97.3767 4.32844 97.3767 12.5C97.3767 20.6716 102.413 25 108.644 25C111.188 25 113.536 24.2786 115.425 22.862C115.53 24.0031 116.487 24.9082 117.668 24.9082H119.793C120.003 24.9082 120.173 24.7377 120.173 24.5278V0.786988C120.16 0.577125 120.003 0.406612 119.793 0.406612V0.406612ZM108.644 20.3568C104.932 20.3568 101.915 17.6417 101.915 12.5131C101.915 7.38458 104.932 4.66947 108.644 4.66947C112.356 4.66947 115.373 7.38458 115.373 12.5131C115.373 17.6417 112.356 20.3568 108.644 20.3568Z" fill="white"/>
</g>
<defs>
<clipPath id="clip0_3_133">
<rect width="144.286" height="25" fill="white"/>
</clipPath>
</defs>
</svg>
