<svg width="91" height="30" viewBox="0 0 91 30" fill="none" xmlns="http://www.w3.org/2000/svg">
<path d="M20.2276 11.2147C21.7337 12.439 22.4878 14.3503 22.4878 16.9492V30H15.3121V17.9096C15.3121 17.3826 15.1143 16.921 14.7189 16.5255C14.3232 16.1299 13.8615 15.9323 13.3345 15.9323H9.15336C8.62547 15.9323 8.17345 16.13 7.79739 16.5255C7.42042 16.921 7.2323 17.3826 7.2323 17.9096V30H0V0H7.23221V9.77399C7.34528 9.73688 7.60827 9.66102 8.02336 9.54796C8.43735 9.43507 8.9837 9.37859 9.66187 9.37859H14.2949C16.7431 9.3785 18.7207 9.99112 20.2276 11.2147ZM42.9978 9.3785H50.23V22.0338C50.23 24.4067 49.5802 26.3276 48.2808 27.7966C46.9812 29.2655 45.2199 30 42.9978 30H35.8786C33.3925 30 31.4052 29.3132 29.9177 27.9379C28.4291 26.5634 27.6858 24.5958 27.6858 22.0339V9.37859H34.918V21.469C34.918 21.9969 35.1062 22.4488 35.4831 22.8249C35.8591 23.2019 36.3112 23.3899 36.8391 23.3899H41.0204C41.5473 23.3899 42.009 23.2019 42.4046 22.8249C42.8002 22.4488 42.9978 21.9968 42.9978 21.469V9.3785ZM55.7106 0H62.9429V30H55.7106V0ZM90.9677 9.3785V22.0338C90.9677 24.4067 90.3179 26.3276 89.0184 27.7966C87.7189 29.2655 85.9577 30 83.7355 30H76.6728C74.1488 30 72.1429 29.3132 70.6554 27.9379C69.1669 26.5634 68.4236 24.5958 68.4236 22.0339V9.37859H75.6558V21.469C75.6558 21.9969 75.8437 22.4488 76.2208 22.8249C76.5969 23.2019 77.049 23.3899 77.5767 23.3899H81.8144C82.3415 23.3899 82.7936 23.2019 83.1704 22.8249C83.5465 22.4488 83.7355 21.9968 83.7355 21.469V9.3785H90.9677Z" fill="white"/>
</svg>
