<?xml version="1.0" encoding="utf-8"?>
<!-- Generator: Adobe Illustrator 25.0.0, SVG Export Plug-In . SVG Version: 6.00 Build 0)  -->
<svg version="1.1" id="Layer_1" xmlns="http://www.w3.org/2000/svg" xmlns:xlink="http://www.w3.org/1999/xlink" x="0px" y="0px"
	 viewBox="0 0 594.7 1054" style="enable-background:new 0 0 594.7 1054;" xml:space="preserve">
<style type="text/css">
	.st0{fill:#FFFFFF;}
</style>
<g>
	<path class="st0" d="M491.6,85.7c-10.1-10.1-25.8-10.1-35.8,0L297.3,244.2L138.8,85.7c-10.1-10.1-25.8-10.1-35.8,0
		s-10.1,25.8,0,35.8L261.5,280L103,438.5c-10.1,10.1-10.1,25.8,0,35.8c5,5,11.2,7.3,17.9,7.3c6.7,0,12.9-2.2,17.9-7.3l158.5-158.5
		l158.5,158.5c5,5,11.2,7.3,17.9,7.3c6.7,0,12.9-2.2,17.9-7.3c10.1-10.1,10.1-25.8,0-35.8L333.2,280l158.5-158.5
		C501.2,111.4,501.2,95.8,491.6,85.7L491.6,85.7z"/>
	<g>
		<path class="st0" d="M516.1,716.4H78.6c-14.9,0-27.3-12.4-27.3-27.3c0-14.9,12.4-27.3,27.3-27.3h437.5c14.9,0,27.3,12.4,27.3,27.3
			C543.4,704,531,716.4,516.1,716.4L516.1,716.4z"/>
		<path class="st0" d="M369.2,840.3H78.6c-14.9,0-27.3-12.4-27.3-27.3c0-14.9,12.4-27.3,27.3-27.3h290.6c14.9,0,27.3,12.4,27.3,27.3
			C396.5,827.9,384.1,840.3,369.2,840.3z"/>
		<path class="st0" d="M259.8,964.7H78.6c-14.9,0-27.3-12.4-27.3-27.3c0-14.9,12.4-27.3,27.3-27.3h181.2c14.9,0,27.3,12.4,27.3,27.3
			C287.1,952.3,274.7,964.7,259.8,964.7L259.8,964.7z"/>
	</g>
</g>
</svg>
