<svg width="20" height="20" viewBox="0 0 20 20" fill="none" xmlns="http://www.w3.org/2000/svg">
<path d="M19.7281 17.2913L15.8339 13.3971C15.6581 13.2214 15.4199 13.1237 15.1699 13.1237H14.5332C15.6113 11.7449 16.2518 10.0107 16.2518 8.12421C16.2518 3.63636 12.6155 0 8.12762 0C3.63978 0 0.00341797 3.63636 0.00341797 8.12421C0.00341797 12.612 3.63978 16.2484 8.12762 16.2484C10.0142 16.2484 11.7484 15.6079 13.1271 14.5298V15.1665C13.1271 15.4165 13.2248 15.6547 13.4005 15.8305L17.2947 19.7246C17.6618 20.0918 18.2555 20.0918 18.6188 19.7246L19.7241 18.6193C20.0913 18.2521 20.0913 17.6584 19.7281 17.2913ZM8.12762 13.1237C5.36618 13.1237 3.12811 10.8896 3.12811 8.12421C3.12811 5.36276 5.36227 3.12469 8.12762 3.12469C10.8891 3.12469 13.1271 5.35885 13.1271 8.12421C13.1271 10.8857 10.893 13.1237 8.12762 13.1237Z" fill="white"/>
</svg>
