<svg width="111" height="30" viewBox="0 0 111 30" fill="none" xmlns="http://www.w3.org/2000/svg">
<path d="M15.2628 28.0663C13.5931 28.3595 11.8939 28.4474 10.1362 28.6816L4.77506 12.9786V29.3555C3.10529 29.5313 1.58197 29.7656 0 30V0H4.45301L10.5463 17.0217V0H15.2628V28.0663ZM24.4909 10.9863C26.3073 10.9863 29.0903 10.8984 30.7601 10.8984V15.5858C28.6801 15.5858 26.2487 15.5858 24.4909 15.6737V22.6465C27.2448 22.4708 29.9985 22.2362 32.7814 22.1483V26.6597L19.8035 27.6854V0H32.7814V4.68751H24.4909V10.9863ZM50.2121 4.68762H45.3491V26.2501C43.7672 26.2501 42.1852 26.2501 40.6621 26.3085V4.68762H35.7991V0H50.2123L50.2121 4.68762ZM57.8288 10.6642H64.2446V15.3516H57.8288V25.9864H53.2292V0H66.3246V4.68751H57.8288V10.6642ZM73.9413 21.8848C76.6072 21.9432 79.3022 22.1486 81.9097 22.2948V26.9238C77.7205 26.66 73.5312 26.3966 69.2541 26.3085V0H73.9413V21.8848ZM85.8645 27.2461C87.3585 27.3341 88.9405 27.422 90.4638 27.5975V0H85.8645V27.2461ZM111 0L105.053 14.2676L111 30C109.242 29.7656 107.484 29.4433 105.727 29.1503L102.358 20.4786L98.9306 28.4474C97.2311 28.1542 95.5906 28.0663 93.8918 27.8319L99.9266 14.0917L94.4775 0H99.5161L102.592 7.88088L105.873 0H111V0Z" fill="white"/>
</svg>
