<svg width="121" height="35" viewBox="0 0 121 35" fill="none" xmlns="http://www.w3.org/2000/svg">
<g clip-path="url(#clip0_3_165)">
<path d="M22.9549 12.6343C25.2148 14.2489 27.9833 15.199 30.9734 15.199V9.44805C30.4075 9.44817 29.8431 9.38919 29.2894 9.27196V13.7987C26.2996 13.7987 23.5314 12.8487 21.2709 11.2342V22.9701C21.2709 28.8411 16.5092 33.6 10.6356 33.6C8.44407 33.6 6.40711 32.9378 4.715 31.8021C6.64626 33.7758 9.33956 35.0001 12.3192 35.0001C18.1931 35.0001 22.9551 30.2412 22.9551 24.37V12.6343H22.9549ZM25.0322 6.83235C23.8773 5.57123 23.1189 3.94146 22.9549 2.13968V1.39999H21.3591C21.7608 3.69005 23.1308 5.64654 25.0322 6.83235ZM8.43002 27.2969C7.78474 26.4513 7.43604 25.4168 7.4376 24.3532C7.4376 21.6681 9.61559 19.4909 12.3026 19.4909C12.8034 19.4908 13.3012 19.5674 13.7784 19.7188V13.8393C13.2207 13.7629 12.6578 13.7305 12.0952 13.7424V18.3187C11.6176 18.1673 11.1196 18.0905 10.6187 18.0909C7.93165 18.0909 5.75378 20.2678 5.75378 22.9533C5.75378 24.8522 6.84241 26.4961 8.43002 27.2969Z" fill="#FF004F"/>
<path d="M21.2709 11.2341C23.5314 12.8486 26.2996 13.7986 29.2894 13.7986V9.27184C27.6205 8.91653 26.143 8.04483 25.0322 6.83235C23.1307 5.64642 21.7608 3.68993 21.3591 1.39999H17.1674V24.3698C17.1579 27.0476 14.9837 29.2158 12.3024 29.2158C10.7224 29.2158 9.31866 28.463 8.42966 27.2969C6.84218 26.4961 5.75354 24.852 5.75354 22.9535C5.75354 20.2682 7.93141 18.0911 10.6185 18.0911C11.1333 18.0911 11.6295 18.1712 12.095 18.3188V13.7425C6.32458 13.8617 1.68381 18.5742 1.68381 24.3699C1.68381 27.2631 2.83947 29.8858 4.71512 31.8022C6.40723 32.9378 8.44419 33.6002 10.6358 33.6002C16.5094 33.6002 21.271 28.8409 21.271 22.9701V11.2341H21.2709Z" fill="white"/>
<path d="M29.2894 9.27183V8.04782C27.7845 8.0501 26.3091 7.62884 25.0322 6.83222C26.1625 8.06908 27.6509 8.92192 29.2894 9.27183ZM21.3591 1.39998C21.3208 1.18112 21.2914 0.960828 21.2709 0.73969V0H15.4834V22.97C15.4741 25.6475 13.3 27.8157 10.6185 27.8157C9.83122 27.8157 9.08792 27.6289 8.42967 27.297C9.31867 28.463 10.7224 29.2157 12.3024 29.2157C14.9835 29.2157 17.1581 27.0477 17.1675 24.3699V1.39998H21.3591ZM12.0952 13.7425V12.4395C11.6116 12.3734 11.1241 12.3403 10.6359 12.3405C4.76174 12.3404 0 17.0996 0 22.97C0 26.6504 1.87145 29.894 4.71525 31.802C2.8396 29.8857 1.68394 27.2628 1.68394 24.3698C1.68394 18.5742 6.3246 13.8617 12.0952 13.7425Z" fill="#00F2EA"/>
<path d="M96.3501 28.7875C100.553 28.7875 103.96 25.4078 103.96 21.2392C103.96 17.0707 100.553 13.6905 96.3501 13.6905H95.2036C99.4066 13.6905 102.814 17.0706 102.814 21.2392C102.814 25.4078 99.4066 28.7875 95.2036 28.7875H96.3501Z" fill="#FF004F"/>
<path d="M95.0997 13.6905H93.9533C89.7506 13.6905 86.3428 17.0706 86.3428 21.2392C86.3428 25.4078 89.7506 28.7875 93.9533 28.7875H95.0997C90.8964 28.7875 87.4892 25.4078 87.4892 21.2392C87.4891 17.0707 90.8964 13.6905 95.0997 13.6905Z" fill="#00F2EA"/>
<path d="M37.2442 10.2788V14.1049H41.7259V28.6842H46.2095V14.2082H49.8577L51.1086 10.2789H37.2442V10.2788ZM73.9382 10.2788V14.1049H78.4199V28.6842H82.9035V14.2082H86.5516L87.8024 10.2789H73.9382V10.2788ZM51.9433 12.45C51.9433 11.2511 52.9218 10.2788 54.1307 10.2788C55.3406 10.2788 56.3202 11.2511 56.3202 12.45C56.3202 13.6491 55.3412 14.6214 54.1307 14.6214C52.9218 14.6208 51.9433 13.6491 51.9433 12.45ZM51.9433 16.1729H56.3202V28.6842H51.9433V16.1729ZM58.1969 10.2788V28.6841H62.5755V23.9281L63.9308 22.6862L68.2042 28.7874H72.8948L66.7439 19.895L72.269 14.5175H66.9528L62.5755 18.8602V10.2788H58.1969ZM105.419 10.2788V28.6841H109.798V23.9281L111.153 22.6862L115.427 28.7874H120.118L113.968 19.895L119.492 14.5175H114.176L109.798 18.8602V10.2788H105.419Z" fill="white"/>
<path d="M95.2033 28.7875C99.406 28.7875 102.814 25.4078 102.814 21.2392C102.814 17.0707 99.406 13.6905 95.2033 13.6905H95.0994C90.8964 13.6905 87.4893 17.0706 87.4893 21.2392C87.4893 25.4078 90.8964 28.7875 95.0994 28.7875H95.2033ZM91.4505 21.2392C91.4505 19.2115 93.1082 17.569 95.1522 17.569C97.1948 17.569 98.8523 19.2115 98.8523 21.2392C98.8523 23.2669 97.1948 24.9104 95.1522 24.9104C93.1082 24.91 91.4505 23.2669 91.4505 21.2392Z" fill="white"/>
</g>
<defs>
<clipPath id="clip0_3_165">
<rect width="120.118" height="35" fill="white"/>
</clipPath>
</defs>
</svg>
