<svg width="274" height="59" viewBox="0 0 274 59" fill="none" xmlns="http://www.w3.org/2000/svg">
<path d="M46.8298 2.37149H11.0188C8.34607 2.37149 5.77174 3.42904 3.86969 5.30007C1.98404 7.18738 0.91823 9.74176 0.91823 12.3937V18.7715H6.42762V12.3937C6.42762 11.1898 6.90314 10.0346 7.77218 9.17231C8.62482 8.32628 9.80541 7.83818 11.0188 7.83818H46.8298C48.0432 7.83818 49.2074 8.31001 50.0765 9.17231C50.9291 10.0346 51.421 11.1898 51.421 12.3937V47.9272C51.421 49.1312 50.9455 50.3026 50.0765 51.1486C49.2074 51.9947 48.0432 52.4828 46.8298 52.4828H41.3205V57.9495H46.8298C49.5026 57.9495 52.0769 56.8919 53.9789 55.0209C55.881 53.1336 56.9304 50.5955 56.9304 47.9272V12.3937C56.9304 9.74176 55.8646 7.18738 53.9789 5.30007C52.0769 3.42904 49.5026 2.37149 46.8298 2.37149Z" fill="white"/>
<path d="M27.547 55.2162V57.9495H33.0564V55.2162C33.0564 50.0911 31.6954 45.0637 29.1211 40.6383C26.5468 36.2129 22.8246 32.5197 18.3646 29.9653C13.9047 27.4109 8.83799 26.0605 3.67293 26.0605H0.91823V31.5272H3.67293C10.0022 31.5272 16.0691 34.0165 20.5618 38.4582C25.0382 42.9161 27.547 48.936 27.547 55.2162Z" fill="white"/>
<path d="M13.7735 55.2161V57.9494H19.2829V55.2161C19.2829 46.17 12.7897 39.7272 3.67293 39.7272H0.91823V45.1938H3.67293C9.75622 45.1938 13.7735 49.18 13.7735 55.2161Z" fill="white"/>
<path d="M5.50939 56.1272C5.50939 57.6403 4.27962 58.8606 2.7547 58.8606C1.22978 58.8606 0 57.6403 0 56.1272C0 54.6141 1.22978 53.3939 2.7547 53.3939C4.27962 53.3939 5.50939 54.6141 5.50939 56.1272Z" fill="white"/>
<path d="M88.5283 30.3832L96.9044 2.44909H105.061L92.6797 37.7548H87.3073L88.5283 30.3832ZM80.8115 2.44909L89.1632 30.3832L90.433 37.7548H85.0118L72.704 2.44909H80.8115Z" fill="white"/>
<path d="M118.867 11.518V37.7548H111.809V11.518H118.867ZM111.37 4.67994C111.37 3.66151 111.728 2.8209 112.444 2.15811C113.161 1.49532 114.121 1.16392 115.326 1.16392C116.514 1.16392 117.467 1.49532 118.183 2.15811C118.916 2.8209 119.282 3.66151 119.282 4.67994C119.282 5.69837 118.916 6.53899 118.183 7.20178C117.467 7.86456 116.514 8.19596 115.326 8.19596C114.121 8.19596 113.161 7.86456 112.444 7.20178C111.728 6.53899 111.37 5.69837 111.37 4.67994Z" fill="white"/>
<path d="M140.341 38.2397C138.29 38.2397 136.45 37.9164 134.822 37.2698C133.194 36.607 131.81 35.6936 130.671 34.5297C129.547 33.3658 128.684 32.016 128.082 30.4802C127.48 28.9283 127.179 27.2795 127.179 25.5336V24.5636C127.179 22.5753 127.463 20.7566 128.033 19.1077C128.603 17.4588 129.417 16.0282 130.475 14.8158C131.55 13.6034 132.852 12.6738 134.382 12.0272C135.913 11.3644 137.639 11.033 139.56 11.033C141.432 11.033 143.092 11.3402 144.541 11.9545C145.99 12.5688 147.203 13.4417 148.18 14.5733C149.173 15.7049 149.922 17.0628 150.427 18.647C150.931 20.2151 151.184 21.961 151.184 23.8847V26.7945H130.182V22.1388H144.273V21.6053C144.273 20.6354 144.094 19.7705 143.735 19.0107C143.394 18.2348 142.873 17.6205 142.173 17.1679C141.472 16.7152 140.577 16.4889 139.486 16.4889C138.558 16.4889 137.761 16.691 137.093 17.0951C136.426 17.4993 135.88 18.0651 135.457 18.7925C135.05 19.52 134.741 20.3767 134.529 21.3628C134.334 22.3328 134.236 23.3997 134.236 24.5636V25.5336C134.236 26.5843 134.382 27.5543 134.676 28.4434C134.985 29.3325 135.416 30.1003 135.97 30.747C136.54 31.3936 137.223 31.8947 138.021 32.2504C138.835 32.606 139.755 32.7838 140.781 32.7838C142.05 32.7838 143.231 32.5414 144.321 32.0564C145.429 31.5553 146.381 30.8036 147.179 29.8013L150.597 33.487C150.044 34.2792 149.287 35.0389 148.326 35.7664C147.382 36.4938 146.243 37.092 144.908 37.5608C143.573 38.0134 142.05 38.2397 140.341 38.2397Z" fill="white"/>
<path d="M166.235 30.9652L171.73 11.518H176.199L174.758 19.1562L169.263 37.7548H165.527L166.235 30.9652ZM163.451 11.518L167.383 30.941L167.749 37.7548H163.354L156.662 11.518H163.451ZM181.229 30.6257L185.063 11.518H191.876L185.185 37.7548H180.814L181.229 30.6257ZM176.809 11.518L182.279 30.8197L183.036 37.7548H179.276L173.781 19.1805L172.389 11.518H176.809Z" fill="white"/>
<path d="M207.88 37.7548H200.798V9.50537C200.798 7.45234 201.23 5.72262 202.093 4.31622C202.956 2.89364 204.201 1.81863 205.829 1.09118C207.457 0.363726 209.419 0 211.714 0C212.675 0 213.871 0.0484968 215.304 0.14549C216.753 0.226318 218.226 0.331395 219.724 0.46072C221.238 0.573879 222.565 0.695121 223.705 0.824446L220.774 6.32883C219.309 6.07018 217.901 5.86811 216.549 5.72262C215.198 5.57713 213.912 5.50439 212.691 5.50439C211.649 5.50439 210.77 5.65796 210.054 5.96511C209.337 6.27225 208.792 6.72489 208.418 7.32302C208.059 7.90498 207.88 8.63243 207.88 9.50537V37.7548ZM216.672 37.7548V0.824446H223.705V37.7548H216.672ZM213.155 11.518V16.4647H196.867V11.518H213.155Z" fill="white"/>
<path d="M240.514 11.518V37.7548H233.457V11.518H240.514ZM233.017 4.67994C233.017 3.66151 233.376 2.8209 234.092 2.15811C234.808 1.49532 235.769 1.16392 236.974 1.16392C238.162 1.16392 239.114 1.49532 239.831 2.15811C240.563 2.8209 240.93 3.66151 240.93 4.67994C240.93 5.69837 240.563 6.53899 239.831 7.20178C239.114 7.86456 238.162 8.19596 236.974 8.19596C235.769 8.19596 234.808 7.86456 234.092 7.20178C233.376 6.53899 233.017 5.69837 233.017 4.67994Z" fill="white"/>
<path d="M255.493 11.518L259.864 19.4957L264.357 11.518H271.854L264.382 24.3454L272.196 37.7548H264.675L259.913 29.3163L255.151 37.7548H247.63L255.444 24.3454L247.971 11.518H255.493Z" fill="white"/>
<path d="M92.2175 53.4647V54.1061C92.2175 54.8683 92.1216 55.5515 91.9297 56.1557C91.7378 56.7598 91.4616 57.2734 91.1012 57.6963C90.7408 58.1193 90.3079 58.4423 89.8024 58.6654C89.3016 58.8885 88.7399 59 88.1174 59C87.5136 59 86.959 58.8885 86.4535 58.6654C85.9527 58.4423 85.5174 58.1193 85.1476 57.6963C84.7825 57.2734 84.4994 56.7598 84.2981 56.1557C84.0968 55.5515 83.9962 54.8683 83.9962 54.1061V53.4647C83.9962 52.7025 84.0945 52.0216 84.2911 51.4221C84.4923 50.8179 84.7755 50.3043 85.1406 49.8814C85.5057 49.4538 85.9386 49.1285 86.4394 48.9054C86.9449 48.6823 87.4996 48.5708 88.1034 48.5708C88.7259 48.5708 89.2875 48.6823 89.7884 48.9054C90.2938 49.1285 90.7268 49.4538 91.0872 49.8814C91.4523 50.3043 91.7308 50.8179 91.9227 51.4221C92.1193 52.0216 92.2175 52.7025 92.2175 53.4647ZM90.8766 54.1061V53.4508C90.8766 52.8466 90.8134 52.3121 90.687 51.8473C90.5653 51.3826 90.3851 50.9922 90.1464 50.6761C89.9077 50.3601 89.6152 50.1207 89.2688 49.9581C88.9271 49.7954 88.5386 49.7141 88.1034 49.7141C87.6821 49.7141 87.3006 49.7954 86.959 49.9581C86.622 50.1207 86.3318 50.3601 86.0884 50.6761C85.8497 50.9922 85.6648 51.3826 85.5337 51.8473C85.4027 52.3121 85.3372 52.8466 85.3372 53.4508V54.1061C85.3372 54.7149 85.4027 55.254 85.5337 55.7234C85.6648 56.1882 85.852 56.5809 86.0954 56.9016C86.3435 57.2176 86.636 57.457 86.973 57.6197C87.3147 57.7823 87.6962 57.8637 88.1174 57.8637C88.5574 57.8637 88.9482 57.7823 89.2899 57.6197C89.6316 57.457 89.9194 57.2176 90.1534 56.9016C90.3921 56.5809 90.5723 56.1882 90.694 55.7234C90.8157 55.254 90.8766 54.7149 90.8766 54.1061Z" fill="white"/>
<path d="M102.11 48.7102V58.8606H100.748L95.6016 51.0317V58.8606H94.2466V48.7102H95.6016L100.769 56.56V48.7102H102.11Z" fill="white"/>
<path d="M111.005 57.7661V58.8606H105.592V57.7661H111.005ZM105.866 48.7102V58.8606H104.511V48.7102H105.866ZM110.289 53.0743V54.1688H105.592V53.0743H110.289ZM110.935 48.7102V49.8117H105.592V48.7102H110.935Z" fill="white"/>
<path d="M117.605 48.7102V58.8606H116.25V48.7102H117.605ZM121.887 53.2765V54.3779H117.31V53.2765H121.887ZM122.582 48.7102V49.8117H117.31V48.7102H122.582Z" fill="white"/>
<path d="M130.397 57.7661V58.8606H125.285V57.7661H130.397ZM125.552 48.7102V58.8606H124.197V48.7102H125.552Z" fill="white"/>
<path d="M133.402 48.7102V58.8606H132.047V48.7102H133.402Z" fill="white"/>
<path d="M136.87 48.7102L139.327 52.6002L141.784 48.7102H143.364L140.134 53.7366L143.441 58.8606H141.848L139.327 54.8938L136.807 58.8606H135.213L138.52 53.7366L135.29 48.7102H136.87Z" fill="white"/>
<path d="M152.07 48.7102V58.8606H150.736V48.7102H152.07ZM155.356 48.7102V49.8117H147.457V48.7102H155.356Z" fill="white"/>
<path d="M164.546 53.4647V54.1061C164.546 54.8683 164.45 55.5515 164.258 56.1557C164.066 56.7598 163.79 57.2734 163.429 57.6963C163.069 58.1193 162.636 58.4423 162.131 58.6654C161.63 58.8885 161.068 59 160.446 59C159.842 59 159.287 58.8885 158.782 58.6654C158.281 58.4423 157.846 58.1193 157.476 57.6963C157.111 57.2734 156.828 56.7598 156.626 56.1557C156.425 55.5515 156.324 54.8683 156.324 54.1061V53.4647C156.324 52.7025 156.423 52.0216 156.619 51.4221C156.821 50.8179 157.104 50.3043 157.469 49.8814C157.834 49.4538 158.267 49.1285 158.768 48.9054C159.273 48.6823 159.828 48.5708 160.432 48.5708C161.054 48.5708 161.616 48.6823 162.117 48.9054C162.622 49.1285 163.055 49.4538 163.415 49.8814C163.781 50.3043 164.059 50.8179 164.251 51.4221C164.447 52.0216 164.546 52.7025 164.546 53.4647ZM163.205 54.1061V53.4508C163.205 52.8466 163.142 52.3121 163.015 51.8473C162.894 51.3826 162.713 50.9922 162.475 50.6761C162.236 50.3601 161.943 50.1207 161.597 49.9581C161.255 49.7954 160.867 49.7141 160.432 49.7141C160.01 49.7141 159.629 49.7954 159.287 49.9581C158.95 50.1207 158.66 50.3601 158.417 50.6761C158.178 50.9922 157.993 51.3826 157.862 51.8473C157.731 52.3121 157.665 52.8466 157.665 53.4508V54.1061C157.665 54.7149 157.731 55.254 157.862 55.7234C157.993 56.1882 158.18 56.5809 158.424 56.9016C158.672 57.2176 158.964 57.457 159.301 57.6197C159.643 57.7823 160.024 57.8637 160.446 57.8637C160.886 57.8637 161.276 57.7823 161.618 57.6197C161.96 57.457 162.248 57.2176 162.482 56.9016C162.72 56.5809 162.901 56.1882 163.022 55.7234C163.144 55.254 163.205 54.7149 163.205 54.1061Z" fill="white"/>
<path d="M170.141 48.7102H173.525C174.293 48.7102 174.941 48.8264 175.47 49.0588C176.004 49.2911 176.409 49.6351 176.685 50.0905C176.966 50.5413 177.106 51.0967 177.106 51.7567C177.106 52.2215 177.01 52.6467 176.818 53.0325C176.631 53.4136 176.359 53.7389 176.004 54.0085C175.653 54.2734 175.231 54.4709 174.74 54.601L174.361 54.7474H171.18L171.166 53.6529H173.568C174.054 53.6529 174.459 53.5693 174.782 53.402C175.105 53.23 175.348 52.9999 175.512 52.7118C175.676 52.4236 175.758 52.1053 175.758 51.7567C175.758 51.3663 175.681 51.0247 175.526 50.7319C175.372 50.4391 175.128 50.2137 174.796 50.0557C174.469 49.893 174.045 49.8117 173.525 49.8117H171.496V58.8606H170.141V48.7102ZM176.116 58.8606L173.631 54.2594L175.042 54.2525L177.562 58.7769V58.8606H176.116Z" fill="white"/>
<path d="M184.85 48.7102H186.198V55.577C186.198 56.3392 186.027 56.9736 185.685 57.4802C185.344 57.9868 184.89 58.3679 184.323 58.6235C183.762 58.8745 183.151 59 182.491 59C181.798 59 181.171 58.8745 180.609 58.6235C180.052 58.3679 179.61 57.9868 179.282 57.4802C178.959 56.9736 178.798 56.3392 178.798 55.577V48.7102H180.139V55.577C180.139 56.1069 180.237 56.5437 180.434 56.8877C180.63 57.2316 180.904 57.4872 181.255 57.6545C181.611 57.8218 182.023 57.9055 182.491 57.9055C182.964 57.9055 183.376 57.8218 183.727 57.6545C184.082 57.4872 184.358 57.2316 184.555 56.8877C184.752 56.5437 184.85 56.1069 184.85 55.577V48.7102Z" fill="white"/>
<path d="M194.525 57.7661V58.8606H189.413V57.7661H194.525ZM189.68 48.7102V58.8606H188.325V48.7102H189.68Z" fill="white"/>
<path d="M202.57 57.7661V58.8606H197.157V57.7661H202.57ZM197.431 48.7102V58.8606H196.076V48.7102H197.431ZM201.854 53.0743V54.1688H197.157V53.0743H201.854ZM202.5 48.7102V49.8117H197.157V48.7102H202.5Z" fill="white"/>
<path d="M211.311 48.7102V58.8606H209.977V48.7102H211.311ZM214.597 48.7102V49.8117H206.699V48.7102H214.597Z" fill="white"/>
<path d="M222.79 53.0743V54.1688H217.258V53.0743H222.79ZM217.469 48.7102V58.8606H216.114V48.7102H217.469ZM223.97 48.7102V58.8606H222.622V48.7102H223.97Z" fill="white"/>
<path d="M232.872 57.7661V58.8606H227.459V57.7661H232.872ZM227.733 48.7102V58.8606H226.378V48.7102H227.733ZM232.156 53.0743V54.1688H227.459V53.0743H232.156ZM232.802 48.7102V49.8117H227.459V48.7102H232.802Z" fill="white"/>
<path d="M234.978 48.7102H236.291L239.64 56.9853L242.982 48.7102H244.302L240.146 58.8606H239.121L234.978 48.7102ZM234.55 48.7102H235.709L235.898 54.9008V58.8606H234.55V48.7102ZM243.565 48.7102H244.723V58.8606H243.375V54.9008L243.565 48.7102Z" fill="white"/>
<path d="M254.454 49.6095L251.07 58.8606H249.687L253.584 48.7102H254.475L254.454 49.6095ZM257.291 58.8606L253.899 49.6095L253.878 48.7102H254.77L258.681 58.8606H257.291ZM257.115 55.103V56.2045H251.372V55.103H257.115Z" fill="white"/>
<path d="M266.249 57.7661V58.8606H261.138V57.7661H266.249ZM261.405 48.7102V58.8606H260.05V48.7102H261.405Z" fill="white"/>
<path d="M274 57.7661V58.8606H268.889V57.7661H274ZM269.156 48.7102V58.8606H267.801V48.7102H269.156Z" fill="white"/>
</svg>
